<?xml version="1.0" encoding="UTF-8" standalone="no"?>
<!-- Created with Inkscape (http://www.inkscape.org/) -->

<svg
   width="210mm"
   height="297mm"
   viewBox="0 0 210 297"
   version="1.1"
   id="svg5"
   inkscape:version="1.2.1 (9c6d41e410, 2022-07-14)"
   sodipodi:docname="самосмайлик.svg"
   xmlns:inkscape="http://www.inkscape.org/namespaces/inkscape"
   xmlns:sodipodi="http://sodipodi.sourceforge.net/DTD/sodipodi-0.dtd"
   xmlns="http://www.w3.org/2000/svg"
   xmlns:svg="http://www.w3.org/2000/svg">
  <sodipodi:namedview
     id="namedview7"
     pagecolor="#ffffff"
     bordercolor="#000000"
     borderopacity="0.25"
     inkscape:showpageshadow="2"
     inkscape:pageopacity="0.0"
     inkscape:pagecheckerboard="0"
     inkscape:deskcolor="#d1d1d1"
     inkscape:document-units="mm"
     showgrid="false"
     inkscape:zoom="1.4912879"
     inkscape:cx="260.84836"
     inkscape:cy="468.72238"
     inkscape:window-width="1920"
     inkscape:window-height="1017"
     inkscape:window-x="-8"
     inkscape:window-y="-8"
     inkscape:window-maximized="1"
     inkscape:current-layer="layer1" />
  <defs
     id="defs2">
    <inkscape:path-effect
       effect="spiro"
       id="path-effect792"
       is_visible="true"
       lpeversion="1" />
    <inkscape:path-effect
       effect="spiro"
       id="path-effect788"
       is_visible="true"
       lpeversion="1" />
    <inkscape:path-effect
       effect="spiro"
       id="path-effect305"
       is_visible="true"
       lpeversion="1" />
    <inkscape:path-effect
       effect="spiro"
       id="path-effect301"
       is_visible="true"
       lpeversion="1" />
    <inkscape:path-effect
       effect="spiro"
       id="path-effect297"
       is_visible="true"
       lpeversion="1" />
    <inkscape:path-effect
       effect="spiro"
       id="path-effect239"
       is_visible="true"
       lpeversion="1" />
    <inkscape:path-effect
       effect="spiro"
       id="path-effect235"
       is_visible="true"
       lpeversion="1" />
    <inkscape:path-effect
       effect="spiro"
       id="path-effect231"
       is_visible="true"
       lpeversion="1" />
  </defs>
  <g
     inkscape:label="Слой 1"
     inkscape:groupmode="layer"
     id="layer1">
    <path
       style="fill:#ffcc00;stroke-width:0.264583"
       d="m 31.758064,115.14516 c 0.185792,12.91262 5.686088,25.66925 14.948066,34.66847 9.261978,8.99923 22.17157,14.13023 35.084192,13.94444 12.912622,-0.18579 25.669248,-5.68609 34.668478,-14.94807 8.99922,-9.26198 14.13022,-22.17157 13.94443,-35.08419 C 130.21744,100.81319 124.71714,88.056564 115.45516,79.057336 106.19319,70.058109 93.283594,64.92711 80.370972,65.112902 67.45835,65.298694 54.701726,70.79899 45.702498,80.060968 36.703271,89.322946 31.572272,102.23254 31.758064,115.14516 Z"
       id="path229"
       inkscape:path-effect="#path-effect231"
       inkscape:original-d="m 31.758064,115.14516 c -32.8819845,0.47285 65.763705,-0.94597 98.645166,-1.41935 32.88145,-0.47339 -65.763181,0.9465 -98.645166,1.41935 z" />
    <path
       style="fill:#ffcc00;stroke-width:0.264583"
       d="M -23.596774,96.338709 Z"
       id="path233"
       inkscape:path-effect="#path-effect235"
       inkscape:original-d="m -23.596774,96.338709 c -2.64e-4,-2.65e-4 2.65e-4,2.65e-4 0,0 z" />
    <path
       style="fill:#ffcc00;stroke-width:0.264583"
       d="m 53.048386,93.5 c -2.113397,1.463121 -3.611466,3.787239 -4.071281,6.316219 -0.459814,2.528981 0.124291,5.231671 1.587411,7.345071 1.463121,2.1134 3.78724,3.61147 6.31622,4.07128 2.528979,0.45982 5.231674,-0.12429 7.345071,-1.58741 2.113397,-1.46312 3.611466,-3.78724 4.071281,-6.31622 0.459814,-2.52898 -0.124291,-5.231674 -1.587411,-7.345071 -1.463121,-2.113396 -3.78724,-3.611466 -6.31622,-4.07128 -2.528979,-0.459814 -5.231674,0.12429 -7.345071,1.587411 z"
       id="path237"
       inkscape:path-effect="#path-effect239"
       inkscape:original-d="m 53.048386,93.5 c -3.726071,-5.381985 7.451879,10.7637 11.177421,16.14516 C 67.951346,115.02662 56.774458,98.881984 53.048386,93.5 Z" />
    <path
       style="fill:#2b2200;stroke-width:0.264583"
       d="m 94.919353,94.741935 c -2.322414,-0.301914 -4.754813,0.354084 -6.610493,1.782793 -1.85568,1.428709 -3.111786,3.612532 -3.4137,5.934952 -0.301913,2.32241 0.354084,4.75481 1.782794,6.61049 1.428709,1.85568 3.612535,3.11179 5.934949,3.4137 2.322414,0.30191 4.754813,-0.35408 6.610493,-1.78279 1.855684,-1.42871 3.111784,-3.61254 3.413704,-5.93495 0.30191,-2.32242 -0.35409,-4.75482 -1.7828,-6.610496 -1.428707,-1.855679 -3.612533,-3.111785 -5.934947,-3.413699 z"
       id="path295"
       inkscape:path-effect="#path-effect297"
       inkscape:original-d="m 94.919353,94.741935 c 0.768553,-5.914244 -1.53737,11.828225 -2.30645,17.741935 -0.769083,5.91371 1.537899,-11.82769 2.30645,-17.741935 z" />
    <path
       style="fill:#2b2200;stroke-width:0.291303"
       d="m 60.007949,95.274903 c -2.275778,-0.103423 -4.580118,0.730645 -6.262468,2.266732 -1.682349,1.536087 -2.721989,3.755275 -2.825412,6.031055 -0.103423,2.27578 0.730645,4.58012 2.266732,6.26247 1.536087,1.68235 3.755277,2.72199 6.031055,2.82541 2.275778,0.10342 4.580118,-0.73064 6.262468,-2.26673 1.682349,-1.53609 2.721989,-3.75528 2.825412,-6.03106 0.103423,-2.27578 -0.730645,-4.580115 -2.266732,-6.262465 -1.536087,-1.682349 -3.755277,-2.721989 -6.031055,-2.825412 z"
       id="path299"
       inkscape:path-effect="#path-effect301"
       inkscape:original-d="m 60.007949,95.274903 c -0.197231,5.795517 -0.526433,11.590747 -0.790093,17.385667 -0.26366,5.79493 0.527023,-11.59015 0.790093,-17.385667 z" />
    <path
       style="fill:#24221c;stroke-width:0.264583"
       d="m 172.45161,126.32258 c 1.35805,-0.0897 2.74399,0.34009 3.81305,1.18238 1.06906,0.84229 1.8112,2.08919 2.04179,3.43052 0.16129,0.93818 0.0767,1.91754 -0.24312,2.81415 -0.3198,0.89662 -0.87407,1.70846 -1.59267,2.33281 -0.7186,0.62435 -1.5999,1.05978 -2.5324,1.25121 -0.9325,0.19143 -1.91407,0.13841 -2.82052,-0.15234 -0.90646,-0.29075 -1.73574,-0.81857 -2.38291,-1.51668 -0.64717,-0.69812 -1.11077,-1.56493 -1.33214,-2.49078 -0.22137,-0.92585 -0.2,-1.90862 0.0614,-2.82397 0.26139,-0.91535 0.76223,-1.7612 1.43913,-2.43053 0.94217,-0.93162 2.22628,-1.50947 3.54839,-1.59677 z"
       id="path303"
       inkscape:path-effect="#path-effect305"
       inkscape:original-d="m 172.45161,126.32258 c 1.18253,-0.53253 3.90349,3.07553 5.85484,4.6129 1.95135,1.53737 -6.26855,-2.01049 -9.40323,-3.01613 -3.13467,-1.00564 2.36586,-1.06425 3.54839,-1.59677 z" />
    <path
       style="fill:#24221c;stroke-width:0.264583"
       d="M 73.096773,135.19355 92.96774,130.2258"
       id="path710" />
    <path
       style="fill:#24221c;stroke-width:0.264583"
       d="M 31.403226,93.322581 24.66129,91.725804"
       id="path712" />
    <path
       style="fill:#ffcc00;stroke-width:0.264583"
       d="m 67.596773,127.03226 c 2.143347,-0.76675 4.578186,-0.68289 6.663697,0.22952 2.085511,0.91241 3.799601,2.6437 4.691143,4.73822 0.669368,1.57256 0.879726,3.33734 0.598752,5.02318 -0.280974,1.68584 -1.052322,3.287 -2.195529,4.55746"
       id="path786"
       inkscape:path-effect="#path-effect788"
       inkscape:original-d="m 67.596773,127.03226 c 3.785211,1.59703 7.570158,3.31209 11.35484,4.96774 3.784682,1.65565 -1.064252,6.38736 -1.596777,9.58064" />
    <path
       style="fill:#ffcc00;stroke-width:0.264583"
       d="m 70.967742,132.17742 c -1.450995,-0.89399 -2.471481,-2.4555 -2.707777,-4.14333 -0.236297,-1.68783 0.316138,-3.46955 1.465841,-4.72764 1.009672,-1.10486 2.449271,-1.79266 3.938693,-1.94022 1.489421,-0.14756 3.017191,0.23518 4.292104,1.01924 1.274914,0.78406 2.296391,1.95889 2.948511,3.30607 0.65212,1.34717 0.9395,2.86111 0.885208,4.35684 -0.09756,2.68765 -1.264965,5.22386 -2.660601,7.52281 -1.395637,2.29894 -3.041898,4.44978 -4.258753,6.84816 -1.795825,3.53951 -2.602787,7.57432 -2.306452,11.53226"
       id="path790"
       inkscape:path-effect="#path-effect792"
       inkscape:original-d="m 70.967742,132.17742 c -0.413716,-2.89759 -0.827693,-5.91372 -1.241936,-8.87097 -0.414245,-2.95725 8.043275,4.49489 12.064516,6.74193 4.021241,2.24705 -4.61264,9.58092 -6.919354,14.37097 -2.306717,4.79006 -1.537372,7.68844 -2.306452,11.53226" />
    <rect
       style="fill:#241f1c;stroke-width:0.210486"
       id="rect902"
       width="9.7580643"
       height="3.7258065"
       x="67.419357"
       y="122.41935" />
  </g>
</svg>
